<?xml version="1.0" encoding="utf-8"?>
<?xml-stylesheet type="text/xsl" href="rss1.xsl"?>
<rss version="2.0" xmlns:atom="http://www.w3.org/2005/Atom" xmlns:content="http://purl.org/rss/1.0/modules/content/" xmlns:dc="http://purl.org/dc/elements/1.1/" xmlns:media="http://search.yahoo.com/mrss/">
<channel>
 <title>Getty</title>
 <link>http://www.gettyimg.com/</link>
 <atom:link href="http://www.gettyimg.com/" rel="self" type="application/rss+xml" />

 
                <item>
                <title><![CDATA[【HD Live Performances】HDTV - Madonna - Celebration Tour  - Final Show in Rio (2'nd version / rebroadcast ) HDTV H264 1080i DD5.1-ilya2129]]></title>
                <link><![CDATA[https://sharemania.us/threads/madonna-celebration-tour-final-show-in-rio-2nd-version-rebroadcast-hdtv-h264-1080i-dd5-1-ilya2129.244217/]]></link>
                <description><![CDATA[<article>
<blockquote class="messageText SelectQuoteContainer ugc baseHtml">
<div style="text-align: center"><img src="https://i123.fastpic.org/big/2024/0505/2f/69280e2d420bd1e0af858efc3e2faf2f.png?r=1" class="bbCodeImage LbImage" alt="[​IMG]" data-url="https://i123.fastpic.org/big/2024/0505/2f/69280e2d420bd1e0af858efc3e2faf2f.png?r=1" style=""><br>
<br>
<a href="https://fastpic.org/view/123/2024/0512/_879536b4176be6fb4b2239222405728e.png.html" target="_blank" class="externalLink" rel="nofollow"><img src="https://i123.fastpic.org/thumb/2024/0512/8e/_879536b4176be6fb4b2239222405728e.jpeg" class="bbCodeImage LbImage" alt="[​IMG]" data-url="https://i123.fastpic.org/thumb/2024/0512/8e/_879536b4176be6fb4b2239222405728e.jpeg"></a> <a href="https://fastpic.org/view/123/2024/0512/_d81c68f4a8b8809f8f3c94c117cefab4.png.html" target="_blank" class="externalLink" rel="nofollow"><img src="https://i123.fastpic.org/thumb/2024/0512/b4/_d81c68f4a8b8809f8f3c94c117cefab4.jpeg" class="bbCodeImage LbImage" alt="[​IMG]" data-url="https://i123.fastpic.org/thumb/2024/0512/b4/_d81c68f4a8b8809f8f3c94c117cefab4.jpeg"></a> <a href="https://fastpic.org/view/123/2024/0512/_b387f0d178b51594175e75501dcdb135.png.html" target="_blank" class="externalLink" rel="nofollow"><img src="https://i123.fastpic.org/thumb/2024/0512/35/_b387f0d178b51594175e75501dcdb135.jpeg" class="bbCodeImage LbImage" alt="[​IMG]" data-url="https://i123.fastpic.org/thumb/2024/0512/35/_b387f0d178b51594175e75501dcdb135.jpeg"></a> <a href="https://fastpic.org/view/123/2024/0512/_492d297abb0220a33110a0b42f983528.png.html" target="_blank" class="externalLink" rel="nofollow"><img src="https://i123.fastpic.org/thumb/2024/0512/28/_492d297abb0220a33110a0b42f983528.jpeg" class="bbCodeImage LbImage" alt="[​IMG]" data-url="https://i123.fastpic.org/thumb/2024/0512/28/_492d297abb0220a33110a0b42f983528.jpeg"></a> <a href="https://fastpic.org/view/123/2024/0512/_c48c27c82a06a83b2f7ff175dfcad188.png.html" target="_blank" class="externalLink" rel="nofollow"><img src="https://i123.fastpic.org/thumb/2024/0512/88/_c48c27c82a06a83b2f7ff175dfcad188.jpeg" class="bbCodeImage LbImage" alt="[​IMG]" data-url="https://i123.fastpic.org/thumb/2024/0512/88/_c48c27c82a06a83b2f7ff175dfcad188.jpeg"></a> <a href="https://fastpic.org/view/123/2024/0512/_28e2b393f95e94d2009e96ae9132304b.png.html" target="_blank" class="externalLink" rel="nofollow"><img src="https://i123.fastpic.org/thumb/2024/0512/4b/_28e2b393f95e94d2009e96ae9132304b.jpeg" class="bbCodeImage LbImage" alt="[​IMG]" data-url="https://i123.fastpic.org/thumb/2024/0512/4b/_28e2b393f95e94d2009e96ae9132304b.jpeg"></a> <a href="https://fastpic.org/view/123/2024/0512/_05b3c2a74a7526874db2902caadf6c8a.png.html" target="_blank" class="externalLink" rel="nofollow"><img src="https://i123.fastpic.org/thumb/2024/0512/8a/_05b3c2a74a7526874db2902caadf6c8a.jpeg" class="bbCodeImage LbImage" alt="[​IMG]" data-url="https://i123.fastpic.org/thumb/2024/0512/8a/_05b3c2a74a7526874db2902caadf6c8a.jpeg"></a><br>
<br>
Act I<br>
It's a Celebration (with Bob the Drag Queen) (Bob the Drag Queen; "D&amp;D", "Lucky Star", "Celebration", "Erotica", "Vogue", "BIM" &amp; "Material Girl")<br>
Nothing Really Matters (contains elements from the Club 69 Remix)<br>
Everybody (contains elements of "Where's the Party")<br>
Into the Groove (contains elements of "Into the Hollywood Groove")<br>
Burning Up<br>
Open Your Heart<br>
Holiday (contains elements of "I Want Your Love" by Chic)<br>
<br>
Act II<br>
The Storm (contains elements of "In This Life")<br>
Live to Tell<br>
The Ritual (Dancers interlude; contains elements of "Girl Gone Wild")<br>
Like a Prayer (contains elements of "Birjina Gaztetto Bat Zegoen", "Unholy", "Girl Gone Wild" &amp; "Act of Contrition")<br>
<br>
Act III<br>
Living for Love (contains elements of the Offer Nissim Remix, Prince’s “Let’s Go Crazy” &amp; Eddie Copley’s “Fever”)<br>
Erotica (contains elements of "Justify My Love", "You Thrill Me" &amp; "Papa Don't Preach")<br>
Justify My Love (contains elements of Kehlani's "Gangsta", Peggy Lee's “Fever” &amp; "Erotica")<br>
Hung Up (contains elements of Hung Up on Tokischa)<br>
Bad Girl (contains elements of Charles Mayer’s “Le Regret, op. 332", Mercy James on piano)<br>
<br>
Act IV<br>
Ballroom (dancers interlude; contains elements of "Up Down Suite", "Vogue" &amp; BREAK MY SOUL (THE QUEENS REMIX))<br>
Vogue (with Anitta)<br>
Human Nature (Shortened)<br>
Crazy for You (Shortened)<br>
<br>
Act V<br>
The Beast Within (contains elements of "Justify My Love")<br>
Die Another Day<br>
Don't Tell Me (contains elements of "The Good, the Bad &amp; the Ugly")<br>
This Little Light of Mine (Acapella snippet)<br>
Express Yourself (Acoustic; extended outro)<br>
La Isla Bonita<br>
Music (with Pabllo Vittar) (Also with young musicians from Rio different samba schools - Tour debut. Samba version)<br>
<br>
Act VI<br>
Madonna (video interlude; contains elements of "I Don't Search I Find")<br>
Bedtime Story (contains elements of the Sound Factory Remix)<br>
Ray of Light (Sasha Ultra Violet Remix)<br>
Rain<br>
<br>
Act VII<br>
Billie Jean / Like a Virgin (contains elements of Express Yourself, Angel &amp; Smooth Criminal, Dangerous, YRMW, TWYMMF by MJ)<br>
Bitch I'm Madonna (contains elements of "Give Me All Your Luvin")<br>
Celebration (shortened instrumental outro; contains elements of “Music”; Benny Benassi Remix.)<br>
The Power of Good-Bye<br>
Isn't It a Pity (George Harrison song)<br>
​</div><br>
<div class="bbCodeBlock bbCodeCode">
<div class="type">Code:</div>
<pre>General
ID                                       : 1 (0x1)
Complete name                            : C:\Recordings\Madonna - Celebration Tour  - Final Show in Rio (2'nd version) HDTV H264 1080i DD5.1-ilya2129.ts
Format                                   : MPEG-TS
File size                                : 8.75 GiB
Duration                                 : 2 h 20 min
Overall bit rate mode                    : Variable
Overall bit rate                         : 8 919 kb/s
Frame rate                               : 29.970 FPS

Video
ID                                       : 7020 (0x1B6C)
Menu ID                                  : 1 (0x1)
Format                                   : AVC
Format/Info                              : Advanced Video Codec
Format profile                           : High@L4
Format settings                          : CABAC / 4 Ref Frames
Format settings, CABAC                   : Yes
Format settings, Reference frames        : 4 frames
Codec ID                                 : 27
Duration                                 : 2 h 20 min
Bit rate mode                            : Variable
Bit rate                                 : 7 702 kb/s
Maximum bit rate                         : 18.1 Mb/s
Width                                    : 1 920 pixels
Height                                   : 1 080 pixels
Display aspect ratio                     : 16:9
Active Format Description                : Full frame 16:9 image
Frame rate                               : 29.970 (30000/1001) FPS
Standard                                 : Component
Color space                              : YUV
Chroma subsampling                       : 4:2:0
Bit depth                                : 8 bits
Scan type                                : MBAFF
Scan type, store method                  : Interleaved fields
Scan order                               : Top Field First
Bits/(Pixel*Frame)                       : 0.124
Time code of first frame                 : 00:00:00;00
Stream size                              : 7.55 GiB (86%)
Color range                              : Limited
Color primaries                          : BT.709
Transfer characteristics                 : BT.709
Matrix coefficients                      : BT.709

Audio #1
ID                                       : 7022 (0x1B6E)
Menu ID                                  : 1 (0x1)
Format                                   : AC-3
Format/Info                              : Audio Coding 3
Commercial name                          : Dolby Digital
Codec ID                                 : 129
Duration                                 : 2 h 20 min
Bit rate mode                            : Constant
Bit rate                                 : 384 kb/s
Channel(s)                               : 6 channels
Channel layout                           : L R C LFE Ls Rs
Sampling rate                            : 48.0 kHz
Frame rate                               : 31.250 FPS (1536 SPF)
Compression mode                         : Lossy
Stream size                              : 386 MiB (4%)
Language                                 : Portuguese
Service kind                             : Complete Main

Audio #2
ID                                       : 7026 (0x1B72)
Menu ID                                  : 1 (0x1)
Format                                   : MPEG Audio
Format version                           : Version 1
Format profile                           : Layer 2
Codec ID                                 : 3
Duration                                 : 2 h 20 min
Bit rate mode                            : Constant
Bit rate                                 : 192 kb/s
Channel(s)                               : 2 channels
Sampling rate                            : 48.0 kHz
Frame rate                               : 41.667 FPS (1152 SPF)
Compression mode                         : Lossy
Stream size                              : 193 MiB (2%)
Language                                 : Portuguese

Audio #3
ID                                       : 7028 (0x1B74)
Menu ID                                  : 1 (0x1)
Format                                   : MPEG Audio
Format version                           : Version 1
Format profile                           : Layer 2
Codec ID                                 : 3
Duration                                 : 2 h 20 min
Bit rate mode                            : Constant
Bit rate                                 : 192 kb/s
Channel(s)                               : 2 channels
Sampling rate                            : 48.0 kHz
Frame rate                               : 41.667 FPS (1152 SPF)
Compression mode                         : Lossy
Stream size                              : 193 MiB (2%)
Language                                 : English


</pre>
</div><div style="text-align: center"><br>
<div class="bbCodeBlock bbCodeVfcHH HiddenContent">
<div class="attribution type">Hidden Content:</div>
<blockquote>You must reply before you can see the hidden data contained here.</blockquote>
</div></div>
<div class="messageTextEndMarker">&nbsp;</div>
</blockquote>
</article>]]></description>
                <author><![CDATA[ilya2129]]></author>
                </item>

                
                <item>
                <title><![CDATA[【Albums (lossless)】FLAC - Scooch - Welcome To The Planet Pop (Japan)]]></title>
                <link><![CDATA[https://sharemania.us/threads/scooch-welcome-to-the-planet-pop-japan.244216/]]></link>
                <description><![CDATA[<article>
<blockquote class="messageText SelectQuoteContainer ugc baseHtml">
Thank you !!
<div class="messageTextEndMarker">&nbsp;</div>
</blockquote>
</article>]]></description>
                <author><![CDATA[kuyu777]]></author>
                </item>

                </channel></rss>